{"asset":{"version":"2.0","generator":"Unity 2022.3.45f1 glTFast 6.0.1"},"nodes":[{"name":"--------- CONVAI DEMO - ALL FEATURES ---------"},{"name":"Directional Light","children":[2],"translation":[0,3,0],"rotation":[0.408217877,-0.234569758,0.109381668,0.8754261]},{"name":"Directional Light_Orientation","rotation":[0,-1,0,-4.371139E-08],"extensions":{"KHR_lights_punctual":{"light":0}}},{"name":"Camera","children":[4],"translation":[0,0.5,0]},{"name":"Camera_Orientation","rotation":[0,-1,0,-4.371139E-08],"camera":0},{"name":"Convai Player Character","children":[3],"translation":[0,1,-5.75]},{"name":"Convai Input Manager"},{"name":"Convai Transcript UI"},{"name":"Convai Settings Panel","translation":[-489.5,258,-8],"scale":[0.492618173,0.492618173,0.492618173]},{"name":"UINotificationSystem","translation":[-489.5,258,-8],"scale":[0.492618173,0.492618173,0.492618173]},{"name":"Convai Notification System","children":[9]},{"name":"Crosshair","scale":[0.12,0.12,0.12]},{"name":"Background","translation":[-74,26,0]},{"name":"Logo","translation":[-74,26,0]},{"name":"ConvaiLogo","children":[12,13],"translation":[948.6702,-476.7022,0]},{"name":"UIHiddenStatus","children":[14]},{"name":"Text (TMP)","translation":[195,-497.7022,0]},{"name":"Convai Canvas","children":[11,15,16],"translation":[-489.5,258,-8],"scale":[0.492618173,0.492618173,0.492618173]},{"name":"EventSystem"},{"name":"------------ UI ---------------","children":[7,8,10,17,18]},{"name":"Convai Essentials","children":[5,6,19],"translation":[0,-1,8]},{"name":"---------------------------------------------------"},{"name":"---------------------------------------------------"},{"name":"---------------------------------------------------"},{"name":"---------------------------------------------------"},{"name":"---------------------------------------------------"},{"name":"Renderer_EyeLeft","mesh":0},{"name":"Renderer_EyeRight","mesh":1},{"name":"Renderer_Head","mesh":2},{"name":"Renderer_Teeth","mesh":3},{"name":"Renderer_Hair","mesh":4},{"name":"Renderer_Facewear","mesh":5},{"name":"Renderer_Body","mesh":6},{"name":"Renderer_Outfit_Bottom","mesh":7},{"name":"Renderer_Outfit_Footwear","mesh":8},{"name":"Renderer_Outfit_Top","mesh":9},{"name":"HeadTop_End","translation":[1.41318992E-08,0.226344943,0.03732245],"rotation":[-0.00361183425,2.928739E-07,2.99842952E-07,0.9999935]},{"name":"LeftEye","translation":[0.0303526986,0.0878396258,0.08240617],"rotation":[-0.00361103867,7.14105539E-08,5.979848E-08,0.9999935]},{"name":"RightEye","translation":[-0.0298822671,0.08779098,0.08240659],"rotation":[-0.003611039,7.14105539E-08,5.979848E-08,0.9999935]},{"name":"Head","children":[36,37,38],"translation":[-2.29008479E-12,0.122638024,3.25958638E-09],"rotation":[-0.162675932,-3.14974983E-07,-3.831722E-07,0.9866796]},{"name":"Neck","children":[39],"translation":[4.54747351E-13,0.155574948,-3.352759E-08],"rotation":[0.203068763,6.86139146E-08,1.09747738E-07,0.9791645]},{"name":"LeftHandThumb4","translation":[1.49011612E-08,0.0352851041,-8.195639E-08],"rotation":[0.0129754608,0.0523860566,-0.006929321,0.9985186]},{"name":"LeftHandThumb3","children":[41],"translation":[7.450581E-09,0.0304867234,-2.23517418E-08],"rotation":[0.0097544,-0.0248018764,-0.08479485,0.996041954]},{"name":"LeftHandThumb2","children":[42],"translation":[1.00582838E-07,0.0413825735,9.685755E-08],"rotation":[0.0505065,-0.07432583,-0.249845132,0.964107]},{"name":"LeftHandThumb1","children":[43],"translation":[-0.0323560238,0.0263516922,0.00517281331],"rotation":[0.1680159,-0.009933969,0.4148873,0.8941703]},{"name":"LeftHandIndex4","translation":[6.33299351E-08,0.03383879,1.611188E-07],"rotation":[0.0447837748,0.05674636,-0.007132633,0.9973582]},{"name":"LeftHandIndex3","children":[45],"translation":[9.685755E-08,0.0283455662,1.3038516E-07],"rotation":[0.08442398,-0.07587216,-0.02127113,0.9933094]},{"name":"LeftHandIndex2","children":[46],"translation":[6.70552254E-08,0.04467857,-1.02445483E-07],"rotation":[0.09492944,-0.00579895871,0.025652498,0.995136559]},{"name":"LeftHandIndex1","children":[47],"translation":[-0.03534659,0.09745369,-0.00695229229],"rotation":[0.09073022,-0.05149147,0.07105818,0.9920017]},{"name":"LeftHandMiddle4","translation":[-6.33299351E-08,0.03456242,-8.754432E-08],"rotation":[0.0238138139,0.02245875,-0.00164708972,0.9994628]},{"name":"LeftHandMiddle3","children":[49],"translation":[-5.96046448E-08,0.0354073159,2.37487257E-07],"rotation":[0.201824963,-0.02260008,-0.043592494,0.97819]},{"name":"LeftHandMiddle2","children":[50],"translation":[-4.47034836E-08,0.0456979536,3.84607119E-08],"rotation":[0.127577186,-0.009709308,0.0430859961,0.9908448]},{"name":"LeftHandMiddle1","children":[51],"translation":[-0.009198971,0.100197293,-0.00348440232],"rotation":[0.0387243368,-0.06741382,0.0152061721,0.996857345]},{"name":"LeftHandRing4","translation":[-3.7252903E-09,0.0298131388,-3.77185643E-08],"rotation":[0.0066505773,-0.00689839944,0.0221165624,0.9997095]},{"name":"LeftHandRing3","children":[53],"translation":[3.35276127E-08,0.03616324,-1.82073563E-07],"rotation":[0.0390567,-0.005788852,0.00189608778,0.999218464]},{"name":"LeftHandRing2","children":[54],"translation":[4.47034836E-08,0.0418996364,4.76138666E-08],"rotation":[0.186228275,-0.0161960013,0.045856636,0.9813022]},{"name":"LeftHandRing1","children":[55],"translation":[0.0154217966,0.09560403,0.002230024],"rotation":[0.06409987,-0.05493023,-0.057973396,0.9947427]},{"name":"LeftHandPinky4","translation":[-4.47034836E-08,0.0263242032,-1.5180558E-07],"rotation":[0.137403786,0.104530916,-0.0123818461,0.9849062]},{"name":"LeftHandPinky3","children":[57],"translation":[-5.58793545E-09,0.022376122,3.81842256E-08],"rotation":[0.122705571,-0.0119334059,0.0121577578,0.992296934]},{"name":"LeftHandPinky2","children":[58],"translation":[1.65309757E-08,0.0281523652,-4.89963E-08],"rotation":[0.121481486,-0.2108283,0.0594757274,0.968120039]},{"name":"LeftHandPinky1","children":[59],"translation":[0.0391314551,0.08981321,0.0105443513],"rotation":[0.09903868,-0.07101678,-0.1552527,0.9803288]},{"name":"LeftHand","children":[44,48,52,56,60],"translation":[1.43423676E-07,0.251972139,-1.7507773E-07],"rotation":[0.0462273657,0.03871825,-0.0185174458,0.998008549]},{"name":"LeftForeArm","children":[61],"translation":[2.60770321E-08,0.28512904,6.600749E-08],"rotation":[-0.04964983,0.0232877769,0.220481217,0.973848343]},{"name":"LeftArm","children":[62],"translation":[-3.91155481E-08,0.118895635,2.10711733E-07],"rotation":[0.476682216,0.0426002666,-0.05861919,0.87608397]},{"name":"LeftShoulder","children":[63],"translation":[0.04713556,0.141148046,-0.00625511725],"rotation":[0.504936039,0.48947987,-0.5147033,0.490438253]},{"name":"RightHandThumb4","translation":[5.21540642E-08,0.0352847129,-5.96046448E-08],"rotation":[0.0129806791,-0.05237798,0.006926232,0.998518944]},{"name":"RightHandThumb3","children":[65],"translation":[4.47034836E-08,0.0304865334,1.15484E-07],"rotation":[0.009762806,0.0248162244,0.0847950652,0.996041536]},{"name":"RightHandThumb2","children":[66],"translation":[1.56462193E-07,0.0413823575,-4.47034836E-08],"rotation":[0.05050261,0.07431259,0.249845058,0.964108169]},{"name":"RightHandThumb1","children":[67],"translation":[0.0323558748,0.02635207,0.005173141],"rotation":[0.168015271,0.009928146,-0.414886355,0.8941709]},{"name":"RightHandIndex4","translation":[5.21540642E-08,0.03383871,5.122274E-08],"rotation":[0.0447945073,-0.05673527,0.007137012,0.9973583]},{"name":"RightHandIndex3","children":[69],"translation":[-3.7252903E-08,0.028345827,5.7742E-08],"rotation":[0.08441599,0.0758634359,0.0212721266,0.99331075]},{"name":"RightHandIndex2","children":[70],"translation":[0,0.04467868,-1.2665987E-07],"rotation":[0.0949310958,0.00580026628,-0.02565449,0.9951364]},{"name":"RightHandIndex1","children":[71],"translation":[0.035346292,0.09745413,-0.006952108],"rotation":[0.0907276347,0.0514872074,-0.0710584149,0.9920022]},{"name":"RightHandMiddle4","translation":[2.23517418E-08,0.034562733,-1.3038516E-08],"rotation":[0.0238046385,-0.0224682465,0.0016420217,0.9994628]},{"name":"RightHandMiddle3","children":[73],"translation":[4.47034836E-08,0.03540757,-1.37835741E-07],"rotation":[0.201828137,0.0226032753,0.0435942672,0.9781892]},{"name":"RightHandMiddle2","children":[74],"translation":[1.56462193E-07,0.0456977151,-4.353933E-08],"rotation":[0.127577737,0.009707284,-0.043084316,0.990844846]},{"name":"RightHandMiddle1","children":[75],"translation":[0.009198748,0.100197881,-0.0034842724],"rotation":[0.0387215652,0.06741172,-0.0152071649,0.996857643]},{"name":"RightHandRing4","translation":[5.58793545E-08,0.029812796,-8.05594E-08],"rotation":[0.006658042,0.00690643676,-0.0221154764,0.9997094]},{"name":"RightHandRing3","children":[77],"translation":[-3.7252903E-09,0.0361626223,8.381903E-08],"rotation":[0.0390606523,0.005795555,-0.00189749314,0.9992182]},{"name":"RightHandRing2","children":[78],"translation":[-4.09781933E-08,0.0419004932,5.47152E-08],"rotation":[0.186225414,0.0161925256,-0.04585541,0.9813028]},{"name":"RightHandRing1","children":[79],"translation":[-0.01542205,0.0956042856,0.00222963188],"rotation":[0.06409578,0.0549258925,0.0579727329,0.9947432]},{"name":"RightHandPinky4","translation":[1.13621354E-07,0.0263243634,5.7742E-08],"rotation":[0.1373996,-0.104535922,0.01238159,0.984906256]},{"name":"RightHandPinky3","children":[81],"translation":[-1.3038516E-08,0.0223758258,-3.3993274E-07],"rotation":[0.122705445,0.0119325649,-0.0121595813,0.992296934]},{"name":"RightHandPinky2","children":[82],"translation":[1.90921128E-08,0.02815209,2.52584869E-07],"rotation":[0.121480294,0.210827321,-0.05947478,0.968120456]},{"name":"RightHandPinky1","children":[83],"translation":[-0.0391317829,0.0898135155,0.01054355],"rotation":[0.09903561,0.07101304,0.155253157,0.980329335]},{"name":"RightHand","children":[68,72,76,80,84],"translation":[-4.47034836E-08,0.251972139,1.95015673E-07],"rotation":[0.04623002,-0.03871486,0.0185174681,0.998008549]},{"name":"RightForeArm","children":[85],"translation":[-5.96046448E-08,0.285128325,-3.410969E-08],"rotation":[-0.0496490151,-0.0232858174,-0.220481217,0.973848462]},{"name":"RightArm","children":[86],"translation":[5.820766E-09,0.118895717,-2.67289579E-07],"rotation":[0.476680577,-0.0426019169,0.0586194322,0.876084745]},{"name":"RightShoulder","children":[87],"translation":[-0.0471354648,0.14114809,-0.00625513028],"rotation":[0.504932165,-0.48948288,0.514700651,0.490442038]},{"name":"Spine2","children":[40,64,88],"translation":[4.39648318E-13,0.121806316,-3.5390272E-08],"rotation":[0.04720127,-2.65349115E-07,1.159933E-07,0.998885453]},{"name":"Spine1","children":[89],"translation":[2.350828E-13,0.130497441,3.50410119E-08],"rotation":[-0.03217379,7.098063E-08,9.891929E-08,0.999482334]},{"name":"Spine","children":[90],"translation":[1.368905E-12,0.0984730944,1.30385454E-08],"rotation":[-0.06869367,2.627286E-05,1.81812936E-06,0.9976378]},{"name":"LeftToe_End","translation":[-5.50979166E-07,0.09907491,5.46569936E-08],"rotation":[0.00690785656,0.698410034,0.017670285,0.715446353]},{"name":"LeftToeBase","children":[92],"translation":[4.12110239E-07,0.1488445,-1.95577741E-08],"rotation":[0.268228948,-0.04375351,0.0185468476,0.9621824]},{"name":"LeftFoot","children":[93],"translation":[3.32584023E-07,0.443859,-4.14584065E-07],"rotation":[0.507441342,0.01666862,0.00155929569,0.8615237]},{"name":"LeftLeg","children":[94],"translation":[3.69655027E-08,0.45817408,-8.440111E-10],"rotation":[-0.041654963,-0.0003080351,-0.00291149342,0.9991278]},{"name":"LeftUpLeg","children":[95],"translation":[0.09534373,0.005192708,-0.00330230035],"rotation":[0.00142389757,-0.009613843,-0.999410152,0.0329380669]},{"name":"RightToe_End","translation":[5.523616E-07,0.09907487,3.760215E-08],"rotation":[0.0069071,-0.6984309,-0.0176703725,0.7154261]},{"name":"RightToeBase","children":[97],"translation":[-5.98374754E-08,0.148844123,1.17346644E-07],"rotation":[0.268229753,0.04374719,-0.01855548,0.9621823]},{"name":"RightFoot","children":[98],"translation":[-7.566996E-09,0.4438596,1.60071068E-09],"rotation":[0.5074409,-0.0166666731,-0.00155612326,0.8615239]},{"name":"RightLeg","children":[99],"translation":[-2.55095074E-08,0.458174527,7.27595761E-10],"rotation":[-0.0416552871,0.00030894074,0.00291187456,0.9991278]},{"name":"RightUpLeg","children":[100],"translation":[-0.09534404,0.005193066,-0.00329233613],"rotation":[0.00147837109,0.009615623,0.9994101,0.0329377]},{"name":"Hips","children":[91,96,101],"translation":[8.767874E-13,1.01919019,0.0100305574],"rotation":[0.01623045,-2.6236532E-05,-4.23035317E-07,0.9998683]},{"name":"Armature","children":[102]},{"name":"Convai NPC Cahara (1)","children":[26,27,28,29,30,31,32,33,34,35,103],"translation":[-0.042140007,-1.242,5.623254],"rotation":[0,-1,0,0]},{"name":"Cube","mesh":10,"translation":[1.68585348,-1.75882673,-1.71497571],"scale":[100,1,100]},{"name":"Cube (1)","mesh":11,"translation":[0.36,0.03,9.39],"scale":[8.73,5,0.18]},{"name":"Cube (2)","mesh":11,"translation":[0.36,0.03,0.15],"scale":[8.73,5,0.18]},{"name":"Cube (3)","mesh":11,"translation":[-3.91,0.03,4.65],"rotation":[0,-0.7071068,0,0.7071068],"scale":[9.42,4.97,0.18]},{"name":"Cube (4)","mesh":11,"translation":[4.62,0.03,4.65],"rotation":[0,-0.7071068,0,0.7071068],"scale":[9.42,4.97,0.18]}],"extensionsRequired":["KHR_texture_transform","KHR_lights_punctual"],"extensionsUsed":["KHR_texture_transform","KHR_lights_punctual"],"buffers":[{"uri":"ConvaiUnity.bin","byteLength":730600}],"bufferViews":[{"buffer":0,"byteLength":2472},{"buffer":0,"byteLength":2472,"byteOffset":2472},{"buffer":0,"byteLength":49128,"byteOffset":4944},{"buffer":0,"byteLength":1200,"byteOffset":54072},{"buffer":0,"byteLength":27096,"byteOffset":55272},{"buffer":0,"byteLength":8160,"byteOffset":82368},{"buffer":0,"byteLength":7824,"byteOffset":90528},{"buffer":0,"byteLength":14376,"byteOffset":98352},{"buffer":0,"byteLength":20544,"byteOffset":112728},{"buffer":0,"byteLength":82728,"byteOffset":133272},{"buffer":0,"byteLength":72,"byteOffset":216000},{"buffer":0,"byteLength":2880,"byteOffset":216072,"byteStride":24},{"buffer":0,"byteLength":960,"byteOffset":218952,"byteStride":8},{"buffer":0,"byteLength":2880,"byteOffset":219912,"byteStride":24},{"buffer":0,"byteLength":960,"byteOffset":222792,"byteStride":8},{"buffer":0,"byteLength":51888,"byteOffset":223752,"byteStride":24},{"buffer":0,"byteLength":17296,"byteOffset":275640,"byteStride":8},{"buffer":0,"byteLength":2016,"byteOffset":292936,"byteStride":24},{"buffer":0,"byteLength":672,"byteOffset":294952,"byteStride":8},{"buffer":0,"byteLength":48120,"byteOffset":295624,"byteStride":40},{"buffer":0,"byteLength":9624,"byteOffset":343744,"byteStride":8},{"buffer":0,"byteLength":16320,"byteOffset":353368,"byteStride":40},{"buffer":0,"byteLength":3264,"byteOffset":369688,"byteStride":8},{"buffer":0,"byteLength":18840,"byteOffset":372952,"byteStride":40},{"buffer":0,"byteLength":3768,"byteOffset":391792,"byteStride":8},{"buffer":0,"byteLength":29080,"byteOffset":395560,"byteStride":40},{"buffer":0,"byteLength":5816,"byteOffset":424640,"byteStride":8},{"buffer":0,"byteLength":63280,"byteOffset":430456,"byteStride":40},{"buffer":0,"byteLength":12656,"byteOffset":493736,"byteStride":8},{"buffer":0,"byteLength":185720,"byteOffset":506392,"byteStride":40},{"buffer":0,"byteLength":37144,"byteOffset":692112,"byteStride":8},{"buffer":0,"byteLength":1344,"byteOffset":729256,"byteStride":56}],"accessors":[{"bufferView":11,"componentType":5126,"count":120,"type":"VEC3","max":[0.0515209734,1.74264455,0.109038547],"min":[0.0132210106,1.70440316,0.09000309]},{"bufferView":11,"componentType":5126,"count":120,"type":"VEC3","byteOffset":12},{"bufferView":12,"componentType":5126,"count":120,"type":"VEC2"},{"bufferView":0,"componentType":5125,"count":618,"type":"SCALAR"},{"bufferView":13,"componentType":5126,"count":120,"type":"VEC3","max":[-0.0134890676,1.74268293,0.109038576],"min":[-0.0516367853,1.70436287,0.09000313]},{"bufferView":13,"componentType":5126,"count":120,"type":"VEC3","byteOffset":12},{"bufferView":14,"componentType":5126,"count":120,"type":"VEC2"},{"bufferView":1,"componentType":5125,"count":618,"type":"SCALAR"},{"bufferView":15,"componentType":5126,"count":2162,"type":"VEC3","max":[0.09579431,1.83308446,0.135549],"min":[-0.09610731,1.52060616,-0.0865777]},{"bufferView":15,"componentType":5126,"count":2162,"type":"VEC3","byteOffset":12},{"bufferView":16,"componentType":5126,"count":2162,"type":"VEC2"},{"bufferView":2,"componentType":5125,"count":12282,"type":"SCALAR"},{"bufferView":17,"componentType":5126,"count":84,"type":"VEC3","max":[0.0282695051,1.67531884,0.116876],"min":[-0.0282695051,1.63827479,0.0491155759]},{"bufferView":17,"componentType":5126,"count":84,"type":"VEC3","byteOffset":12},{"bufferView":18,"componentType":5126,"count":84,"type":"VEC2"},{"bufferView":3,"componentType":5125,"count":300,"type":"SCALAR"},{"bufferView":19,"componentType":5126,"count":1203,"type":"VEC3","max":[0.126737088,1.86371624,0.144208342],"min":[-0.131456971,1.61120069,-0.121846974]},{"bufferView":19,"componentType":5126,"count":1203,"type":"VEC3","byteOffset":12},{"bufferView":19,"componentType":5126,"count":1203,"type":"VEC4","byteOffset":24},{"bufferView":20,"componentType":5126,"count":1203,"type":"VEC2"},{"bufferView":4,"componentType":5125,"count":6774,"type":"SCALAR"},{"bufferView":21,"componentType":5126,"count":408,"type":"VEC3","max":[0.08746196,1.71239567,0.161065266],"min":[-0.08857785,1.48877859,-0.08366601]},{"bufferView":21,"componentType":5126,"count":408,"type":"VEC3","byteOffset":12},{"bufferView":21,"componentType":5126,"count":408,"type":"VEC4","byteOffset":24},{"bufferView":22,"componentType":5126,"count":408,"type":"VEC2"},{"bufferView":5,"componentType":5125,"count":2040,"type":"SCALAR"},{"bufferView":23,"componentType":5126,"count":471,"type":"VEC3","max":[0.5314633,1.01179159,0.148592114],"min":[-0.5314706,0.8878013,0.0170499012]},{"bufferView":23,"componentType":5126,"count":471,"type":"VEC3","byteOffset":12},{"bufferView":23,"componentType":5126,"count":471,"type":"VEC4","byteOffset":24},{"bufferView":24,"componentType":5126,"count":471,"type":"VEC2"},{"bufferView":6,"componentType":5125,"count":1956,"type":"SCALAR"},{"bufferView":25,"componentType":5126,"count":727,"type":"VEC3","max":[0.2296136,1.12584007,0.118417948],"min":[-0.230425268,0.4336015,-0.14739418]},{"bufferView":25,"componentType":5126,"count":727,"type":"VEC3","byteOffset":12},{"bufferView":25,"componentType":5126,"count":727,"type":"VEC4","byteOffset":24},{"bufferView":26,"componentType":5126,"count":727,"type":"VEC2"},{"bufferView":7,"componentType":5125,"count":3594,"type":"SCALAR"},{"bufferView":27,"componentType":5126,"count":1582,"type":"VEC3","max":[0.2650871,0.5093018,0.21264644],"min":[-0.265087038,0.00349113345,-0.14449738]},{"bufferView":27,"componentType":5126,"count":1582,"type":"VEC3","byteOffset":12},{"bufferView":27,"componentType":5126,"count":1582,"type":"VEC4","byteOffset":24},{"bufferView":28,"componentType":5126,"count":1582,"type":"VEC2"},{"bufferView":8,"componentType":5125,"count":5136,"type":"SCALAR"},{"bufferView":29,"componentType":5126,"count":4643,"type":"VEC3","max":[0.5312091,1.67102122,0.175779283],"min":[-0.5312091,0.8521793,-0.201322675]},{"bufferView":29,"componentType":5126,"count":4643,"type":"VEC3","byteOffset":12},{"bufferView":29,"componentType":5126,"count":4643,"type":"VEC4","byteOffset":24},{"bufferView":30,"componentType":5126,"count":4643,"type":"VEC2"},{"bufferView":9,"componentType":5125,"count":20682,"type":"SCALAR"},{"bufferView":31,"componentType":5126,"count":24,"type":"VEC3","max":[0.5,0.5,0.5],"min":[-0.5,-0.5,-0.5]},{"bufferView":31,"componentType":5126,"count":24,"type":"VEC3","byteOffset":12},{"bufferView":31,"componentType":5126,"count":24,"type":"VEC4","byteOffset":24},{"bufferView":31,"componentType":5126,"count":24,"type":"VEC2","byteOffset":40},{"bufferView":31,"componentType":5126,"count":24,"type":"VEC2","byteOffset":48},{"bufferView":10,"componentType":5123,"count":36,"type":"SCALAR"}],"cameras":[{"type":"perspective","perspective":{"yfov":1.04719758,"zfar":1000,"znear":0.01}}],"images":[{"name":"Floor Tiles 1 - diffuse.jpg","uri":"Floor Tiles 1 - diffuse.jpg","mimeType":"image/jpeg"},{"name":"Small Crate_normal.png","uri":"Small Crate_normal.png","mimeType":"image/png"},{"name":"Small Crate_diffuse.jpg","uri":"Small Crate_diffuse.jpg","mimeType":"image/jpeg"}],"materials":[{"name":"Wolf3D_Eye","pbrMetallicRoughness":{"metallicFactor":0}},{"name":"Wolf3D_Skin","pbrMetallicRoughness":{"metallicFactor":0}},{"name":"Wolf3D_Teeth","pbrMetallicRoughness":{"metallicFactor":0}},{"name":"Wolf3D_Hair","pbrMetallicRoughness":{"metallicFactor":0}},{"name":"Wolf3D_Facewear","pbrMetallicRoughness":{"metallicFactor":0}},{"name":"Wolf3D_Body","pbrMetallicRoughness":{"metallicFactor":0}},{"name":"Wolf3D_Outfit_Bottom","pbrMetallicRoughness":{"metallicFactor":0}},{"name":"Wolf3D_Outfit_Footwear","pbrMetallicRoughness":{"metallicFactor":0}},{"name":"Wolf3D_Outfit_Top","pbrMetallicRoughness":{"metallicFactor":0}},{"name":"Ground - Surface Shader Scene","pbrMetallicRoughness":{"metallicFactor":0,"roughnessFactor":0.652,"baseColorTexture":{"index":0,"extensions":{"KHR_texture_transform":{"offset":[0,-49],"scale":[50,50]}}}}},{"name":"Small Crate_diffuse","pbrMetallicRoughness":{"metallicFactor":0,"roughnessFactor":0.5,"baseColorTexture":{"index":2,"extensions":{"KHR_texture_transform":{"offset":[0.25,0.5],"scale":[0.25,0.25]}}}},"normalTexture":{"index":1}}],"meshes":[{"name":"EyeLeft","primitives":[{"attributes":{"POSITION":0,"NORMAL":1,"TEXCOORD_0":2},"indices":3,"material":0}]},{"name":"EyeRight","primitives":[{"attributes":{"POSITION":4,"NORMAL":5,"TEXCOORD_0":6},"indices":7,"material":0}]},{"name":"Wolf3D_Head","primitives":[{"attributes":{"POSITION":8,"NORMAL":9,"TEXCOORD_0":10},"indices":11,"material":1}]},{"name":"Wolf3D_Teeth","primitives":[{"attributes":{"POSITION":12,"NORMAL":13,"TEXCOORD_0":14},"indices":15,"material":2}]},{"name":"Wolf3D_Hair","primitives":[{"attributes":{"POSITION":16,"NORMAL":17,"TANGENT":18,"TEXCOORD_0":19},"indices":20,"material":3}]},{"name":"Wolf3D_Facewear","primitives":[{"attributes":{"POSITION":21,"NORMAL":22,"TANGENT":23,"TEXCOORD_0":24},"indices":25,"material":4}]},{"name":"Wolf3D_Body","primitives":[{"attributes":{"POSITION":26,"NORMAL":27,"TANGENT":28,"TEXCOORD_0":29},"indices":30,"material":5}]},{"name":"Wolf3D_Outfit_Bottom","primitives":[{"attributes":{"POSITION":31,"NORMAL":32,"TANGENT":33,"TEXCOORD_0":34},"indices":35,"material":6}]},{"name":"Wolf3D_Outfit_Footwear","primitives":[{"attributes":{"POSITION":36,"NORMAL":37,"TANGENT":38,"TEXCOORD_0":39},"indices":40,"material":7}]},{"name":"Wolf3D_Outfit_Top","primitives":[{"attributes":{"POSITION":41,"NORMAL":42,"TANGENT":43,"TEXCOORD_0":44},"indices":45,"material":8}]},{"name":"Cube","primitives":[{"attributes":{"POSITION":46,"NORMAL":47,"TANGENT":48,"TEXCOORD_0":49,"TEXCOORD_1":50},"indices":51,"material":9}]},{"name":"Cube","primitives":[{"attributes":{"POSITION":46,"NORMAL":47,"TANGENT":48,"TEXCOORD_0":49,"TEXCOORD_1":50},"indices":51,"material":10}]}],"samplers":[{"wrapS":33071,"wrapT":33071}],"scene":0,"scenes":[{"name":"Ask Cahara!","nodes":[0,1,20,21,22,23,24,25,104,105,106,107,108,109]}],"textures":[{"source":0},{"source":1,"sampler":0},{"source":2,"sampler":0}],"extensions":{"KHR_lights_punctual":{"lights":[{"type":"directional","name":"Directional Light","intensity":3.14159274}]}}}